<?xml version="1.0" standalone="no"?>
<!DOCTYPE svg PUBLIC "-//W3C//DTD SVG 20010904//EN"
 "http://www.w3.org/TR/2001/REC-SVG-20010904/DTD/svg10.dtd">
<svg version="1.0" xmlns="http://www.w3.org/2000/svg"
 width="1626.000000pt" height="1626.000000pt" viewBox="0 0 1626.000000 1626.000000"
 preserveAspectRatio="xMidYMid meet">
<metadata>
Created by potrace 1.16, written by Peter Selinger 2001-2019
</metadata>
<g transform="translate(0.000000,1626.000000) scale(0.100000,-0.100000)" stroke="none">
<path d="M10755 14979 c-1206 -70 -2287 -366 -2886 -789 -209 -147 -349 -327
-349 -449 0 -58 60 -168 137 -251 226 -244 675 -483 1228 -655 1443 -448 3396
-439 4817 21 753 244 1298 619 1298 893 0 184 -270 434 -702 650 -639 321
-1526 521 -2572 581 -204 11 -764 11 -971 -1z"/>
<path d="M7520 11623 l0 -425 37 -70 c116 -221 477 -469 968 -666 1081 -432
2688 -572 4095 -356 998 153 1826 470 2207 845 77 76 139 161 159 218 8 25 14
170 19 459 l8 423 -174 -89 c-278 -141 -548 -249 -872 -348 -1600 -486 -3764
-492 -5362 -14 -406 121 -703 240 -982 393 l-103 55 0 -425z"/>
<path d="M14935 9512 c-78 -45 -391 -193 -492 -233 -115 -46 -409 -144 -563
-189 -578 -167 -1150 -264 -1890 -322 -259 -20 -1217 -17 -1486 5 -437 36
-743 77 -1128 153 -125 25 -230 43 -232 41 -2 -2 54 -49 124 -105 293 -232
503 -498 620 -785 49 -122 112 -357 112 -422 0 -26 6 -47 15 -55 18 -15 221
-42 480 -64 1438 -124 3016 125 3910 617 308 169 547 384 585 528 6 23 9 196
8 451 l-3 414 -60 -34z"/>
<path d="M4575 8734 c-27 -2 -122 -8 -210 -14 -1083 -73 -2104 -352 -2676
-732 -168 -112 -331 -272 -383 -377 -54 -110 -48 -161 35 -283 219 -322 835
-638 1624 -833 434 -108 856 -173 1390 -217 254 -21 1136 -18 1395 5 820 72
1531 230 2094 468 494 209 857 496 907 717 17 76 -50 203 -174 325 -424 423
-1389 762 -2542 892 -343 38 -495 46 -950 49 -253 2 -482 2 -510 0z"/>
<path d="M14815 6953 c-234 -119 -374 -179 -608 -259 -651 -221 -1322 -353
-2142 -421 -176 -14 -328 -18 -755 -18 -546 0 -675 6 -1060 46 -102 10 -195
19 -207 19 l-23 0 0 -597 c0 -329 3 -607 6 -619 5 -19 19 -22 162 -38 470 -50
1123 -70 1552 -47 1232 67 2261 342 2895 775 169 116 329 289 355 386 6 24 9
192 8 451 l-3 414 -180 -92z"/>
<path d="M1270 5374 l0 -426 31 -58 c68 -129 199 -255 396 -384 607 -397 1630
-667 2793 -736 228 -14 817 -14 1045 0 669 40 1314 150 1851 316 654 202 1153
496 1322 780 l52 88 0 422 0 422 -192 -97 c-773 -389 -1797 -625 -3002 -691
-243 -13 -889 -13 -1132 0 -1215 67 -2313 330 -3061 734 l-103 56 0 -426z"/>
<path d="M1270 2875 l0 -427 30 -57 c176 -329 794 -669 1600 -880 487 -127
1024 -208 1614 -242 263 -15 988 -6 1236 15 575 50 1078 140 1550 276 547 158
1026 398 1273 639 76 73 112 121 157 207 l30 58 0 418 c0 230 -3 418 -6 418
-3 0 -63 -31 -132 -69 -644 -350 -1627 -604 -2687 -695 -359 -31 -593 -39
-1063 -33 -673 8 -1164 54 -1742 163 -689 130 -1265 319 -1719 561 -69 38
-129 70 -133 71 -5 2 -8 -188 -8 -423z"/>
</g>
</svg>
